  0
SECTION
  2
HEADER
  9
$ACADVER
  1
AC1015
  9
$ACADMAINTVER
 70
     6
  9
$DWGCODEPAGE
  3
ANSI_1252
  9
$INSBASE
 10
0.0
 20
0.0
 30
0.0
  9
$EXTMIN
 10
-61.585399733
 20
-11.4904032839
 30
0.0
  9
$EXTMAX
 10
61.585399733
 20
61.4904032839
 30
0.0
  9
$LIMMIN
 10
0.0
 20
0.0
  9
$LIMMAX
 10
420.0
 20
297.0
  9
$ORTHOMODE
 70
     0
  9
$REGENMODE
 70
     1
  9
$FILLMODE
 70
     1
  9
$QTEXTMODE
 70
     0
  9
$MIRRTEXT
 70
     1
  9
$LTSCALE
 40
1.0
  9
$ATTMODE
 70
     1
  9
$TEXTSIZE
 40
3.0
  9
$TRACEWID
 40
1.0
  9
$TEXTSTYLE
  7
Standard
  9
$CLAYER
  8
0
  9
$CELTYPE
  6
ByLayer
  9
$CECOLOR
 62
   256
  9
$CELTSCALE
 40
1.0
  9
$DISPSILH
 70
     0
  9
$DIMSCALE
 40
1.0
  9
$DIMASZ
 40
2.5
  9
$DIMEXO
 40
0.0
  9
$DIMDLI
 40
3.75
  9
$DIMRND
 40
0.0
  9
$DIMDLE
 40
0.0
  9
$DIMEXE
 40
1.0
  9
$DIMTP
 40
0.0
  9
$DIMTM
 40
0.0
  9
$DIMTXT
 40
3.0
  9
$DIMCEN
 40
2.5
  9
$DIMTSZ
 40
0.0
  9
$DIMTOL
 70
     0
  9
$DIMLIM
 70
     0
  9
$DIMTIH
 70
     1
  9
$DIMTOH
 70
     1
  9
$DIMSE1
 70
     0
  9
$DIMSE2
 70
     0
  9
$DIMTAD
 70
     1
  9
$DIMZIN
 70
     0
  9
$DIMBLK
  1

  9
$DIMASO
 70
     1
  9
$DIMSHO
 70
     1
  9
$DIMPOST
  1

  9
$DIMAPOST
  1

  9
$DIMALT
 70
     0
  9
$DIMALTD
 70
     3
  9
$DIMALTF
 40
0.0393700787
  9
$DIMLFAC
 40
1.0
  9
$DIMTOFL
 70
     1
  9
$DIMTVP
 40
0.0
  9
$DIMTIX
 70
     0
  9
$DIMSOXD
 70
     0
  9
$DIMSAH
 70
     0
  9
$DIMBLK1
  1

  9
$DIMBLK2
  1

  9
$DIMSTYLE
  2
ISO-25
  9
$DIMCLRD
 70
     0
  9
$DIMCLRE
 70
     0
  9
$DIMCLRT
 70
     0
  9
$DIMTFAC
 40
1.0
  9
$DIMGAP
 40
0.5
  9
$DIMJUST
 70
     0
  9
$DIMSD1
 70
     0
  9
$DIMSD2
 70
     0
  9
$DIMTOLJ
 70
     0
  9
$DIMTZIN
 70
     0
  9
$DIMALTZ
 70
     0
  9
$DIMALTTZ
 70
     0
  9
$DIMUPT
 70
     0
  9
$DIMDEC
 70
     1
  9
$DIMTDEC
 70
     3
  9
$DIMALTU
 70
     2
  9
$DIMALTTD
 70
     3
  9
$DIMTXSTY
  7
Standard
  9
$DIMAUNIT
 70
     0
  9
$DIMADEC
 70
     2
  9
$DIMALTRND
 40
0.0
  9
$DIMAZIN
 70
     0
  9
$DIMDSEP
 70
    44
  9
$DIMATFIT
 70
     3
  9
$DIMFRAC
 70
     0
  9
$DIMLDRBLK
  1

  9
$DIMLUNIT
 70
     2
  9
$DIMLWD
 70
    -2
  9
$DIMLWE
 70
    -2
  9
$DIMTMOVE
 70
     0
  9
$LUNITS
 70
     2
  9
$LUPREC
 70
     2
  9
$SKETCHINC
 40
1.0
  9
$FILLETRAD
 40
0.0
  9
$AUNITS
 70
     0
  9
$AUPREC
 70
     2
  9
$MENU
  1
.
  9
$ELEVATION
 40
0.0
  9
$PELEVATION
 40
0.0
  9
$THICKNESS
 40
0.0
  9
$LIMCHECK
 70
     0
  9
$CHAMFERA
 40
0.0
  9
$CHAMFERB
 40
0.0
  9
$CHAMFERC
 40
0.0
  9
$CHAMFERD
 40
0.0
  9
$SKPOLY
 70
     0
  9
$TDCREATE
 40
2460844.47769985
  9
$TDUCREATE
 40
2460844.394366517
  9
$TDUPDATE
 40
2460844.477731771
  9
$TDUUPDATE
 40
2460844.394398438
  9
$TDINDWG
 40
0.0000000116
  9
$TDUSRTIMER
 40
0.0000000116
  9
$USRTIMER
 70
     1
  9
$ANGBASE
 50
0.0
  9
$ANGDIR
 70
     0
  9
$PDMODE
 70
     0
  9
$PDSIZE
 40
-1.0
  9
$PLINEWID
 40
0.0
  9
$SPLFRAME
 70
     0
  9
$SPLINETYPE
 70
     6
  9
$SPLINESEGS
 70
     8
  9
$HANDSEED
  5
10E
  9
$SURFTAB1
 70
     6
  9
$SURFTAB2
 70
     6
  9
$SURFTYPE
 70
     6
  9
$SURFU
 70
     6
  9
$SURFV
 70
     6
  9
$UCSBASE
  2

  9
$UCSNAME
  2

  9
$UCSORG
 10
0.0
 20
0.0
 30
0.0
  9
$UCSXDIR
 10
1.0
 20
0.0
 30
0.0
  9
$UCSYDIR
 10
0.0
 20
1.0
 30
0.0
  9
$UCSORTHOREF
  2

  9
$UCSORTHOVIEW
 70
     0
  9
$UCSORGTOP
 10
0.0
 20
0.0
 30
0.0
  9
$UCSORGBOTTOM
 10
0.0
 20
0.0
 30
0.0
  9
$UCSORGLEFT
 10
0.0
 20
0.0
 30
0.0
  9
$UCSORGRIGHT
 10
0.0
 20
0.0
 30
0.0
  9
$UCSORGFRONT
 10
0.0
 20
0.0
 30
0.0
  9
$UCSORGBACK
 10
0.0
 20
0.0
 30
0.0
  9
$PUCSBASE
  2

  9
$PUCSNAME
  2

  9
$PUCSORG
 10
0.0
 20
0.0
 30
0.0
  9
$PUCSXDIR
 10
1.0
 20
0.0
 30
0.0
  9
$PUCSYDIR
 10
0.0
 20
1.0
 30
0.0
  9
$PUCSORTHOREF
  2

  9
$PUCSORTHOVIEW
 70
     0
  9
$PUCSORGTOP
 10
0.0
 20
0.0
 30
0.0
  9
$PUCSORGBOTTOM
 10
0.0
 20
0.0
 30
0.0
  9
$PUCSORGLEFT
 10
0.0
 20
0.0
 30
0.0
  9
$PUCSORGRIGHT
 10
0.0
 20
0.0
 30
0.0
  9
$PUCSORGFRONT
 10
0.0
 20
0.0
 30
0.0
  9
$PUCSORGBACK
 10
0.0
 20
0.0
 30
0.0
  9
$USERI1
 70
     0
  9
$USERI2
 70
     0
  9
$USERI3
 70
     0
  9
$USERI4
 70
     0
  9
$USERI5
 70
     0
  9
$USERR1
 40
0.0
  9
$USERR2
 40
0.0
  9
$USERR3
 40
0.0
  9
$USERR4
 40
0.0
  9
$USERR5
 40
0.0
  9
$WORLDVIEW
 70
     1
  9
$SHADEDGE
 70
     3
  9
$SHADEDIF
 70
    70
  9
$TILEMODE
 70
     1
  9
$MAXACTVP
 70
    64
  9
$PINSBASE
 10
0.0
 20
0.0
 30
0.0
  9
$PLIMCHECK
 70
     0
  9
$PEXTMIN
 10
1.0000000000E+20
 20
1.0000000000E+20
 30
1.0000000000E+20
  9
$PEXTMAX
 10
-1.0000000000E+20
 20
-1.0000000000E+20
 30
-1.0000000000E+20
  9
$PLIMMIN
 10
0.0
 20
0.0
  9
$PLIMMAX
 10
420.0
 20
297.0
  9
$UNITMODE
 70
     0
  9
$VISRETAIN
 70
     1
  9
$PLINEGEN
 70
     0
  9
$PSLTSCALE
 70
     1
  9
$TREEDEPTH
 70
  3020
  9
$CMLSTYLE
  2
Standard
  9
$CMLJUST
 70
     0
  9
$CMLSCALE
 40
20.0
  9
$PROXYGRAPHICS
 70
     1
  9
$MEASUREMENT
 70
     1
  9
$CELWEIGHT
370
    -1
  9
$ENDCAPS
280
     0
  9
$JOINSTYLE
280
     0
  9
$LWDISPLAY
290
     1
  9
$INSUNITS
 70
     4
  9
$HYPERLINKBASE
  1

  9
$STYLESHEET
  1

  9
$XEDIT
290
     1
  9
$CEPSNTYPE
380
     0
  9
$PSTYLEMODE
290
     1
  9
$FINGERPRINTGUID
  2
{206ceb0d-0e52-4f0a-a725-9e35abe158be}
  9
$VERSIONGUID
  2
{FAEB1C32-E019-11D5-929B-00C0DF256EC4}
  9
$EXTNAMES
290
     1
  9
$PSVPSCALE
 40
0.0
  9
$OLESTARTUP
290
     0
  0
ENDSEC
  0
SECTION
  2
CLASSES
  0
CLASS
  1
ACDBDICTIONARYWDFLT
  2
AcDbDictionaryWithDefault
  3
ObjectDBX Classes
 90
        0
280
     0
281
     0
  0
CLASS
  1
VISUALSTYLE
  2
AcDbVisualStyle
  3
ObjectDBX Classes
 90
     4095
280
     0
281
     0
  0
CLASS
  1
MATERIAL
  2
AcDbMaterial
  3
ObjectDBX Classes
 90
     1153
280
     0
281
     0
  0
CLASS
  1
SCALE
  2
AcDbScale
  3
ObjectDBX Classes
 90
     1153
280
     0
281
     0
  0
CLASS
  1
TABLESTYLE
  2
AcDbTableStyle
  3
ObjectDBX Classes
 90
     4095
280
     0
281
     0
  0
CLASS
  1
MLEADERSTYLE
  2
AcDbMLeaderStyle
  3
ACDB_MLEADERSTYLE_CLASS
 90
     4095
280
     0
281
     0
  0
CLASS
  1
SUN
  2
AcDbSun
  3
SCENEOE
 90
     1153
280
     0
281
     0
  0
CLASS
  1
ACDBPLACEHOLDER
  2
AcDbPlaceHolder
  3
ObjectDBX Classes
 90
        0
280
     0
281
     0
  0
CLASS
  1
LAYOUT
  2
AcDbLayout
  3
ObjectDBX Classes
 90
        0
280
     0
281
     0
  0
ENDSEC
  0
SECTION
  2
TABLES
  0
TABLE
  2
VPORT
  5
8
330
0
100
AcDbSymbolTable
 70
     1
  0
VPORT
  5
29
330
8
100
AcDbSymbolTableRecord
100
AcDbViewportTableRecord
  2
*Active
 70
     0
 10
0.0
 20
0.0
 11
1.0
 21
1.0
 12
0.0
 22
25.0
 13
0.0
 23
0.0
 14
10.0
 24
10.0
 15
10.0
 25
10.0
 16
0.0
 26
0.0
 36
1.0
 17
0.0
 27
0.0
 37
0.0
 40
74.4404226992
 41
1.6877149659
 42
50.0
 43
0.0
 44
0.0
 50
0.0
 51
0.0
 71
     0
 72
   100
 73
     1
 74
     3
 75
     0
 76
     0
 77
     0
 78
     0
281
     0
 65
     1
110
0.0
120
0.0
130
0.0
111
1.0
121
0.0
131
0.0
112
0.0
122
1.0
132
0.0
 79
     0
146
0.0
  0
ENDTAB
  0
TABLE
  2
LTYPE
  5
5
330
0
100
AcDbSymbolTable
 70
     6
  0
LTYPE
  5
14
330
5
100
AcDbSymbolTableRecord
100
AcDbLinetypeTableRecord
  2
ByBlock
 70
     0
  3

 72
    65
 73
     0
 40
0.0
  0
LTYPE
  5
15
330
5
100
AcDbSymbolTableRecord
100
AcDbLinetypeTableRecord
  2
ByLayer
 70
     0
  3

 72
    65
 73
     0
 40
0.0
  0
LTYPE
  5
16
330
5
100
AcDbSymbolTableRecord
100
AcDbLinetypeTableRecord
  2
Continuous
 70
     0
  3
Solid line
 72
    65
 73
     0
 40
0.0
  0
LTYPE
  5
5E
330
5
100
AcDbSymbolTableRecord
100
AcDbLinetypeTableRecord
  2
HIDDEN
 70
     0
  3
Hidden __ __ __ __ __ __ __ __ __ __ __ __ __ __
 72
    65
 73
     2
 40
1.905
 49
1.27
 74
     0
 49
-0.635
 74
     0
  0
LTYPE
  5
5F
330
5
100
AcDbSymbolTableRecord
100
AcDbLinetypeTableRecord
  2
PHANTOM
 70
     0
  3
Phantom ______  __  __  ______  __  __  ______
 72
    65
 73
     6
 40
12.7
 49
6.35
 74
     0
 49
-1.27
 74
     0
 49
1.27
 74
     0
 49
-1.27
 74
     0
 49
1.27
 74
     0
 49
-1.27
 74
     0
  0
LTYPE
  5
60
330
5
100
AcDbSymbolTableRecord
100
AcDbLinetypeTableRecord
  2
CENTER
 70
     0
  3
Center ____ _ ____ _ ____ _ ____ _ ____ _ ____
 72
    65
 73
     4
 40
10.16
 49
6.35
 74
     0
 49
-1.27
 74
     0
 49
1.27
 74
     0
 49
-1.27
 74
     0
  0
LTYPE
  5
61
330
5
100
AcDbSymbolTableRecord
100
AcDbLinetypeTableRecord
  2
CENTERX2
 70
     0
  3
Center (2x) ________  __  ________  __  _____
 72
    65
 73
     4
 40
20.32
 49
12.7
 74
     0
 49
-2.54
 74
     0
 49
2.54
 74
     0
 49
-2.54
 74
     0
  0
LTYPE
  5
62
330
5
100
AcDbSymbolTableRecord
100
AcDbLinetypeTableRecord
  2
DOT2
 70
     0
  3
Dot (.5x) ........................................
 72
    65
 73
     2
 40
0.635
 49
0.0
 74
     0
 49
-0.635
 74
     0
  0
ENDTAB
  0
TABLE
  2
LAYER
  5
2
330
0
100
AcDbSymbolTable
 70
     1
  0
LAYER
  5
10
330
2
100
AcDbSymbolTableRecord
100
AcDbLayerTableRecord
  2
0
 70
     0
 62
     7
  6
Continuous
370
    -3
390
F
  0
ENDTAB
  0
TABLE
  2
STYLE
  5
3
330
0
100
AcDbSymbolTable
 70
     2
  0
STYLE
  5
11
330
3
100
AcDbSymbolTableRecord
100
AcDbTextStyleTableRecord
  2
Standard
 70
     0
 40
0.0
 41
1.0
 50
0.0
 71
     0
 42
3.0
  3
txt
  4

  0
STYLE
  5
10A
330
3
100
AcDbSymbolTableRecord
100
AcDbTextStyleTableRecord
  2
SLDTEXTSTYLE0
 70
     0
 40
0.0
 41
0.7
 50
0.0
 71
     0
 42
3.0
  3
TXT
  4

  0
ENDTAB
  0
TABLE
  2
VIEW
  5
6
330
0
100
AcDbSymbolTable
 70
     0
  0
ENDTAB
  0
TABLE
  2
UCS
  5
7
330
0
100
AcDbSymbolTable
 70
     0
  0
ENDTAB
  0
TABLE
  2
APPID
  5
9
330
0
100
AcDbSymbolTable
 70
     1
  0
APPID
  5
12
330
9
100
AcDbSymbolTableRecord
100
AcDbRegAppTableRecord
  2
ACAD
 70
     0
  0
ENDTAB
  0
TABLE
  2
DIMSTYLE
  5
A
330
0
100
AcDbSymbolTable
 70
     1
100
AcDbDimStyleTable
  0
DIMSTYLE
105
27
330
A
100
AcDbSymbolTableRecord
100
AcDbDimStyleTableRecord
  2
ISO-25
 70
     0
 41
2.5
 42
0.625
 43
3.75
 44
1.25
 73
     0
 74
     0
 77
     1
 78
     8
140
2.5
141
2.5
143
0.0393700787
147
0.625
171
     3
172
     1
178
     0
271
     2
272
     2
274
     3
278
    44
283
     0
284
     8
340
11
  0
ENDTAB
  0
TABLE
  2
BLOCK_RECORD
  5
1
330
0
100
AcDbSymbolTable
 70
     1
  0
BLOCK_RECORD
  5
1F
330
1
100
AcDbSymbolTableRecord
100
AcDbBlockTableRecord
  2
*Model_Space
340
22
  0
BLOCK_RECORD
  5
1B
330
1
100
AcDbSymbolTableRecord
100
AcDbBlockTableRecord
  2
*Paper_Space
340
1E
  0
BLOCK_RECORD
  5
23
330
1
100
AcDbSymbolTableRecord
100
AcDbBlockTableRecord
  2
*Paper_Space0
340
26
  0
ENDTAB
  0
ENDSEC
  0
SECTION
  2
BLOCKS
  0
BLOCK
  5
20
330
1F
100
AcDbEntity
  8
0
100
AcDbBlockBegin
  2
*Model_Space
 70
     0
 10
0.0
 20
0.0
 30
0.0
  3
*Model_Space
  1

  0
ENDBLK
  5
21
330
1F
100
AcDbEntity
  8
0
100
AcDbBlockEnd
  0
BLOCK
  5
1C
330
1B
100
AcDbEntity
 67
     1
  8
0
100
AcDbBlockBegin
  2
*Paper_Space
 70
     0
 10
0.0
 20
0.0
 30
0.0
  3
*Paper_Space
  1

  0
ENDBLK
  5
1D
330
1B
100
AcDbEntity
 67
     1
  8
0
100
AcDbBlockEnd
  0
BLOCK
  5
24
330
23
100
AcDbEntity
  8
0
100
AcDbBlockBegin
  2
*Paper_Space0
 70
     0
 10
0.0
 20
0.0
 30
0.0
  3
*Paper_Space0
  1

  0
ENDBLK
  5
25
330
23
100
AcDbEntity
  8
0
100
AcDbBlockEnd
  0
ENDSEC
  0
SECTION
  2
ENTITIES
  0
LINE
  5
63
330
1F
100
AcDbEntity
  8
0
  6
PHANTOM
 62
     7
100
AcDbLine
 10
-41.1
 20
50.0
 30
0.0
 11
-41.1
 21
0.0
 31
0.0
  0
LINE
  5
64
330
1F
100
AcDbEntity
  8
0
  6
PHANTOM
 62
     7
100
AcDbLine
 10
41.1
 20
0.0
 30
0.0
 11
41.1
 21
50.0
 31
0.0
  0
CIRCLE
  5
65
330
1F
100
AcDbEntity
  8
0
  6
Continuous
 62
     7
370
    25
100
AcDbCircle
 10
-52.4144041752
 20
50.3961737279
 30
0.0
 40
2.899999999999984
  0
CIRCLE
  5
66
330
1F
100
AcDbEntity
  8
0
  6
Continuous
 62
     7
370
    25
100
AcDbCircle
 10
-52.4144041752
 20
-0.3961737279
 30
0.0
 40
2.899999999999977
  0
CIRCLE
  5
67
330
1F
100
AcDbEntity
  8
0
  6
Continuous
 62
     7
370
    25
100
AcDbCircle
 10
52.4144041752
 20
50.3961737279
 30
0.0
 40
2.899999999999956
  0
CIRCLE
  5
68
330
1F
100
AcDbEntity
  8
0
  6
Continuous
 62
     7
370
    25
100
AcDbCircle
 10
52.4144041752
 20
-0.3961737279
 30
0.0
 40
2.900000000000004
  0
SPLINE
  5
69
330
1F
100
AcDbEntity
  8
0
  6
Continuous
 62
     7
370
    25
100
AcDbSpline
210
0.0
220
0.0
230
1.0
 70
     8
 71
     3
 72
     8
 73
     4
 74
     0
 42
0.00000001
 43
0.00000001
 40
0.0
 40
0.0
 40
0.0
 40
0.0
 40
1.0
 40
1.0
 40
1.0
 40
1.0
 10
-42.48709992556091
 20
0.0
 30
0.0
 10
-43.13672493981296
 20
-0.0073827958569431
 30
0.0
 10
-43.66211174465078
 20
-0.1515885447227923
 30
0.0
 10
-44.20000000000005
 20
-0.5011451653839788
 30
0.0
  0
SPLINE
  5
75
330
1F
100
AcDbEntity
  8
0
  6
Continuous
 62
     7
370
    25
100
AcDbSpline
210
0.0
220
0.0
230
1.0
 70
     8
 71
     3
 72
     8
 73
     4
 74
     0
 42
0.00000001
 43
0.00000001
 40
0.0
 40
0.0
 40
0.0
 40
0.0
 40
1.0
 40
1.0
 40
1.0
 40
1.0
 10
-44.20000000000005
 20
50.50114516538399
 30
0.0
 10
-43.65842418211341
 20
50.15196341097445
 30
0.0
 10
-43.13480833079774
 20
50.00543948602736
 30
0.0
 10
-42.48709992843705
 20
50.00000000000001
 30
0.0
  0
SPLINE
  5
77
330
1F
100
AcDbEntity
  8
0
  6
Continuous
 62
     7
370
    25
100
AcDbSpline
210
0.0
220
0.0
230
1.0
 70
     8
 71
     3
 72
     8
 73
     4
 74
     0
 42
0.00000001
 43
0.00000001
 40
0.0
 40
0.0
 40
0.0
 40
0.0
 40
1.0
 40
1.0
 40
1.0
 40
1.0
 10
42.48709992843992
 20
50.00000000000001
 30
0.0
 10
43.13672494144117
 20
50.00738279636292
 30
0.0
 10
43.66211174593013
 20
50.1515885453653
 30
0.0
 10
44.20000000000005
 20
50.50114516538398
 30
0.0
  0
SPLINE
  5
83
330
1F
100
AcDbEntity
  8
0
  6
Continuous
 62
     7
370
    25
100
AcDbSpline
210
0.0
220
0.0
230
1.0
 70
     8
 71
     3
 72
     8
 73
     4
 74
     0
 42
0.00000001
 43
0.00000001
 40
0.0
 40
0.0
 40
0.0
 40
0.0
 40
1.0
 40
1.0
 40
1.0
 40
1.0
 10
44.20000000000005
 20
-0.5011451653839788
 30
0.0
 10
43.65842418111199
 20
-0.1519634103286926
 30
0.0
 10
43.13480832934693
 20
-0.0054394856566428
 30
0.0
 10
42.48709992557006
 20
0.0
 30
0.0
  0
SPLINE
  5
85
330
1F
100
AcDbEntity
  8
0
  6
Continuous
 62
     7
370
    25
100
AcDbSpline
210
0.0
220
0.0
230
1.0
 70
     8
 71
     3
 72
     8
 73
     4
 74
     0
 42
0.00000001
 43
0.00000001
 40
0.0
 40
0.0
 40
0.0
 40
0.0
 40
0.13794635168434
 40
0.13794635168434
 40
0.13794635168434
 40
0.13794635168434
 10
-0.4789863782051303
 20
32.70000000000002
 30
0.0
 10
-0.3462478934854516
 20
32.69955815683208
 30
0.0
 10
-0.2135094087657728
 20
32.69911631366413
 30
0.0
 10
-0.0807692307692307
 20
32.69826679724155
 30
0.0
  0
SPLINE
  5
8C
330
1F
100
AcDbEntity
  8
0
  6
Continuous
 62
     7
370
    25
100
AcDbSpline
210
0.0
220
0.0
230
1.0
 70
     8
 71
     3
 72
    21
 73
    17
 74
     0
 42
0.00000001
 43
0.00000001
 40
0.1114203937067883
 40
0.1114203937067883
 40
0.1114203937067883
 40
0.1114203937067883
 40
0.1363648245522151
 40
0.204019353511247
 40
0.2730637386246116
 40
0.3429133195614892
 40
0.4109654441389575
 40
0.4791687665134462
 40
0.5493080065097824
 40
0.58765157641765
 40
0.6306466687627902
 40
0.6788787856966487
 40
0.7319342992295829
 40
0.7911114229480468
 40
0.8552831895130772
 40
0.905867979441414
 40
0.905867979441414
 40
0.905867979441414
 40
0.905867979441414
 10
3.757798032395429
 20
29.79743588784343
 30
0.0
 10
3.748463769299543
 20
29.83330373541416
 30
0.0
 10
3.70947719849661
 20
29.96535721427472
 30
0.0
 10
3.615030163283956
 20
30.18666709158271
 30
0.0
 10
3.454203757099772
 20
30.44852107998117
 30
0.0
 10
3.258263966235776
 20
30.68621332150996
 30
0.0
 10
3.028510760172415
 20
30.88958441974723
 30
0.0
 10
2.77122619491357
 20
31.05740390586491
 30
0.0
 10
2.530756418036748
 20
31.16464408657939
 30
0.0
 10
2.315820846992917
 20
31.23039326835748
 30
0.0
 10
2.129204651987316
 20
31.27666177704325
 30
0.0
 10
1.918343004262705
 20
31.31383456430333
 30
0.0
 10
1.682212054442235
 20
31.34361809947914
 30
0.0
 10
1.42181985130855
 20
31.36921746861043
 30
0.0
 10
1.164302866034311
 20
31.38474409728035
 30
0.0
 10
0.9942209902099157
 20
31.39101814804393
 30
0.0
 10
0.9192307692281942
 20
31.39298974984896
 30
0.0
  0
SPLINE
  5
8E
330
1F
100
AcDbEntity
  8
0
  6
Continuous
 62
     7
370
    25
100
AcDbSpline
210
0.0
220
0.0
230
1.0
 70
     8
 71
     3
 72
    22
 73
    18
 74
     0
 42
0.00000001
 43
0.00000001
 40
0.0
 40
0.0
 40
0.0
 40
0.0
 40
0.0642168426314306
 40
0.1270637656931291
 40
0.1887445383478298
 40
0.2491321028350414
 40
0.3094525327106272
 40
0.369826676247681
 40
0.4306501418384678
 40
0.492351931879469
 40
0.5540721062625166
 40
0.6156897837449741
 40
0.6767977025065385
 40
0.7384390482469417
 40
0.8013169100648931
 40
0.865184511711541
 40
0.8892707905114277
 40
0.8892707905114277
 40
0.8892707905114277
 40
0.8892707905114277
 10
2.39835737179487
 20
32.52700320512821
 30
0.0
 10
2.491272836519963
 20
32.50404608508743
 30
0.0
 10
2.675121626888846
 20
32.45862158269338
 30
0.0
 10
2.939826152233591
 20
32.36261103113328
 30
0.0
 10
3.192063842001339
 20
32.25150553606652
 30
0.0
 10
3.430786918825848
 20
32.12100860805519
 30
0.0
 10
3.654799646859639
 20
31.97015155038632
 30
0.0
 10
3.866411803171729
 20
31.80153864897878
 30
0.0
 10
4.066583627436196
 20
31.61609250232591
 30
0.0
 10
4.247219828376348
 20
31.40913750601628
 30
0.0
 10
4.41754153023943
 20
31.19201645660601
 30
0.0
 10
4.561191689255817
 20
30.95723425321086
 30
0.0
 10
4.685022058534563
 20
30.71171956762369
 30
0.0
 10
4.783612220220818
 20
30.45297550891098
 30
0.0
 10
4.862998009680542
 20
30.18351136529515
 30
0.0
 10
4.906697487922457
 20
29.96286784382367
 30
0.0
 10
4.925011159174823
 20
29.83305296766614
 30
0.0
 10
4.929459645703384
 20
29.79743589743588
 30
0.0
  0
SPLINE
  5
8F
330
1F
100
AcDbEntity
  8
0
  6
Continuous
 62
     7
370
    25
100
AcDbSpline
210
0.0
220
0.0
230
1.0
 70
     8
 71
     3
 72
    13
 73
     9
 74
     0
 42
0.00000001
 43
0.00000001
 40
0.4844678981940939
 40
0.4844678981940939
 40
0.4844678981940939
 40
0.4844678981940939
 40
0.4848220507878362
 40
0.6171575782663321
 40
0.7346983606124764
 40
0.8373851838323604
 40
0.9263724209295844
 40
1.0
 40
1.0
 40
1.0
 40
1.0
 10
0.9192307716407574
 20
32.67460011166786
 30
0.0
 10
0.9195713156270617
 20
32.67458650533627
 30
0.0
 10
1.047162315239986
 20
32.66948891798029
 30
0.0
 10
1.287799447770599
 20
32.66007471821455
 30
0.0
 10
1.626020967256047
 20
32.63288967398485
 30
0.0
 10
1.922429136541466
 20
32.60690675443586
 30
0.0
 10
2.175658781760147
 20
32.57289375675224
 30
0.0
 10
2.328950870772355
 20
32.54130550770552
 30
0.0
 10
2.39835737179487
 20
32.52700320512821
 30
0.0
  0
SPLINE
  5
91
330
1F
100
AcDbEntity
  8
0
  6
Continuous
 62
     7
370
    25
100
AcDbSpline
210
0.0
220
0.0
230
1.0
 70
     8
 71
     3
 72
    22
 73
    18
 74
     0
 42
0.00000001
 43
0.00000001
 40
0.0
 40
0.0
 40
0.0
 40
0.0
 40
0.0716681496796051
 40
0.1389132862742048
 40
0.2011845700265592
 40
0.2591244282905451
 40
0.3122550414262354
 40
0.3606815096231101
 40
0.4050861433286447
 40
0.4451016585907113
 40
0.5187777804882602
 40
0.5894615790331974
 40
0.6584622419857169
 40
0.727283218368367
 40
0.7963224869047187
 40
0.863174893207881
 40
0.8870072088034356
 40
0.8870072088034356
 40
0.8870072088034356
 40
0.8870072088034356
 10
0.4445112179487162
 20
27.14629407051283
 30
0.0
 10
0.5530782163222921
 20
27.14624604036774
 30
0.0
 10
0.7635119807270043
 20
27.14615294426682
 30
0.0
 10
1.06795153589975
 20
27.1606446466363
 30
0.0
 10
1.351415941180678
 20
27.17713040140368
 30
0.0
 10
1.612820956170029
 20
27.20234659806556
 30
0.0
 10
1.852283358067107
 20
27.23484434404189
 30
0.0
 10
2.069683457471188
 20
27.2754951725649
 30
0.0
 10
2.265376131496501
 20
27.32285551416934
 30
0.0
 10
2.49360797091602
 20
27.3961585563941
 30
0.0
 10
2.748466241839709
 20
27.51229467981377
 30
0.0
 10
3.025440396250774
 20
27.68126091793394
 30
0.0
 10
3.261306021802683
 20
27.89378315034168
 30
0.0
 10
3.460579407880668
 20
28.13680111938082
 30
0.0
 10
3.620706202091122
 20
28.40399550802036
 30
0.0
 10
3.709241333509673
 20
28.62998954267126
 30
0.0
 10
3.747133068031191
 20
28.76240325339736
 30
0.0
 10
3.756113765305361
 20
28.79743589743578
 30
0.0
  0
SPLINE
  5
9C
330
1F
100
AcDbEntity
  8
0
  6
Continuous
 62
     7
370
    25
100
AcDbSpline
210
0.0
220
0.0
230
1.0
 70
     8
 71
     3
 72
    23
 73
    19
 74
     0
 42
0.00000001
 43
0.00000001
 40
0.0787739669129223
 40
0.0787739669129223
 40
0.0787739669129223
 40
0.0787739669129223
 40
0.0787802355821393
 40
0.153720644208584
 40
0.2267135303087808
 40
0.2991911660659364
 40
0.3711899968376683
 40
0.4430064143534096
 40
0.5166891732948805
 40
0.5932172166234122
 40
0.6338729178078459
 40
0.6769891422899793
 40
0.7228995063258272
 40
0.7719586105061444
 40
0.8242113233348359
 40
0.8793786506272024
 40
0.9379481193304183
 40
1.0
 40
1.0
 40
1.0
 40
1.0
 10
4.927168204075771
 20
28.7974358974401
 30
0.0
 10
4.927166623322043
 20
28.79742254272907
 30
0.0
 10
4.908266417625692
 20
28.63775698604995
 30
0.0
 10
4.844987073622988
 20
28.32506499263355
 30
0.0
 10
4.686140844892924
 20
27.87806376522392
 30
0.0
 10
4.467253481916279
 20
27.46381647907353
 30
0.0
 10
4.188508527184495
 20
27.09039785162392
 30
0.0
 10
3.853501428038031
 20
26.76240962809268
 30
0.0
 10
3.462045294918361
 20
26.48794480240601
 30
0.0
 10
3.097630348510473
 20
26.29761605391771
 30
0.0
 10
2.775724538182684
 20
26.1757217854793
 30
0.0
 10
2.510717946066138
 20
26.08995556904793
 30
0.0
 10
2.221640627724145
 20
26.02369072361394
 30
0.0
 10
1.911262299297097
 20
25.96432681690357
 30
0.0
 10
1.578291320797184
 20
25.91950781146744
 30
0.0
 10
1.223525749299213
 20
25.88668159725009
 30
0.0
 10
0.8467125705271759
 20
25.86616547768773
 30
0.0
 10
0.5878536617314861
 20
25.86311020280501
 30
0.0
 10
0.4546874999999985
 20
25.86153846153846
 30
0.0
  0
SPLINE
  5
9E
330
1F
100
AcDbEntity
  8
0
  6
Continuous
 62
     7
370
    25
100
AcDbSpline
210
0.0
220
0.0
230
1.0
 70
     8
 71
     3
 72
    15
 73
    11
 74
     0
 42
0.00000001
 43
0.00000001
 40
0.0
 40
0.0
 40
0.0
 40
0.0
 40
0.0781298651584269
 40
0.1694654174977329
 40
0.2743352908540844
 40
0.3921101633539202
 40
0.5236873298575191
 40
0.6683654211389628
 40
0.8271319021257842
 40
1.0
 40
1.0
 40
1.0
 40
1.0
 10
7.952063301282046
 20
22.35326522435898
 30
0.0
 10
7.933277613049589
 20
22.42087485164625
 30
0.0
 10
7.89253103691202
 20
22.56752163891344
 30
0.0
 10
7.848896385458072
 20
22.81022404025051
 30
0.0
 10
7.812214860644768
 20
23.08967817001016
 30
0.0
 10
7.777723263670639
 20
23.40590315665986
 30
0.0
 10
7.757370759084865
 20
23.75914410118909
 30
0.0
 10
7.739527481529644
 20
24.14924788162961
 30
0.0
 10
7.725515321896435
 20
24.57668619974808
 30
0.0
 10
7.725597953189228
 20
24.87442687070333
 30
0.0
 10
7.72564102564102
 20
25.02962740384616
 30
0.0
  0
SPLINE
  5
9F
330
1F
100
AcDbEntity
  8
0
  6
Continuous
 62
     7
370
    25
100
AcDbSpline
210
0.0
220
0.0
230
1.0
 70
     8
 71
     3
 72
    23
 73
    19
 74
     0
 42
0.00000001
 43
0.00000001
 40
0.0
 40
0.0
 40
0.0
 40
0.0
 40
0.0711745037456346
 40
0.1396441217506233
 40
0.2063172239119632
 40
0.2713732401918831
 40
0.3354180839163127
 40
0.3980763446528612
 40
0.4606079146322842
 40
0.5229695111172333
 40
0.5847157240924588
 40
0.6448949403163615
 40
0.7042905608207898
 40
0.7629981899193217
 40
0.8210874309038767
 40
0.8801038914767007
 40
0.9393884881896684
 40
1.0
 40
1.0
 40
1.0
 40
1.0
 10
11.92081330128205
 20
19.67435897435898
 30
0.0
 10
11.79864255753315
 20
19.67720655117458
 30
0.0
 10
11.55894399531476
 20
19.68279348670072
 30
0.0
 10
11.20574586547117
 20
19.71480746573639
 30
0.0
 10
10.86714863890014
 20
19.7751084965373
 30
0.0
 10
10.53957617083825
 20
19.85188886376078
 30
0.0
 10
10.22748819551985
 20
19.95778413902831
 30
0.0
 10
9.926703411620254
 20
20.08151162066371
 30
0.0
 10
9.642373340132032
 20
20.23346625083345
 30
0.0
 10
9.369885302013317
 20
20.40253370550532
 30
0.0
 10
9.116521186817883
 20
20.59276024971749
 30
0.0
 10
8.883939181255888
 20
20.80009745233859
 30
0.0
 10
8.671755307967121
 20
21.02122396460197
 30
0.0
 10
8.483546038361238
 20
21.25853386324711
 30
0.0
 10
8.316193114312663
 20
21.51018148580413
 30
0.0
 10
8.172029197106808
 20
21.7768787273973
 30
0.0
 10
8.048246854156687
 20
22.05852233172876
 30
0.0
 10
7.984360167975239
 20
22.25429537319896
 30
0.0
 10
7.952063301282046
 20
22.35326522435898
 30
0.0
  0
SPLINE
  5
A0
330
1F
100
AcDbEntity
  8
0
  6
Continuous
 62
     7
370
    25
100
AcDbSpline
210
0.0
220
0.0
230
1.0
 70
     8
 71
     3
 72
    31
 73
    27
 74
     0
 42
0.00000001
 43
0.00000001
 40
0.0
 40
0.0
 40
0.0
 40
0.0
 40
0.0548580354451541
 40
0.1070587915426408
 40
0.1569783545765236
 40
0.2039922771829769
 40
0.2484915357868487
 40
0.2904833137405234
 40
0.3304890042981894
 40
0.3678859257629633
 40
0.4038581313538714
 40
0.4400093433074116
 40
0.4762950107796838
 40
0.5127922945733485
 40
0.550484824630372
 40
0.5883811157748436
 40
0.627645327169854
 40
0.6679794644543814
 40
0.7084327575000836
 40
0.7486023022886339
 40
0.7890877771957823
 40
0.8294612046317066
 40
0.8703710453051787
 40
0.9122142271494423
 40
0.9555465749316863
 40
1.0
 40
1.0
 40
1.0
 40
1.0
 10
15.86666666666666
 20
25.02962740384616
 30
0.0
 10
15.86574457270004
 20
24.89138471451785
 30
0.0
 10
15.86394505026082
 20
24.62159570113091
 30
0.0
 10
15.84834010125693
 20
24.22625791267228
 30
0.0
 10
15.82345898750765
 20
23.85123423764437
 30
0.0
 10
15.78830506828733
 20
23.49647426452983
 30
0.0
 10
15.74172508535596
 20
23.1632474581319
 30
0.0
 10
15.68992642809622
 20
22.8486330136097
 30
0.0
 10
15.6239606938607
 20
22.55488929743341
 30
0.0
 10
15.54691378099599
 20
22.27972595340549
 30
0.0
 10
15.45883547811948
 20
22.01779566187506
 30
0.0
 10
15.34474902556832
 20
21.76920726009465
 30
0.0
 10
15.21620869724054
 20
21.52640358143667
 30
0.0
 10
15.06375552810357
 20
21.29305701492226
 30
0.0
 10
14.89244565394267
 20
21.06813437925172
 30
0.0
 10
14.69849241237402
 20
20.85299973564492
 30
0.0
 10
14.48831045713027
 20
20.64421519630558
 30
0.0
 10
14.25840576944751
 20
20.44713635626547
 30
0.0
 10
14.01256814923023
 20
20.26640201441631
 30
0.0
 10
13.75152887429924
 20
20.10747867362644
 30
0.0
 10
13.47729316691141
 20
19.97313583305227
 30
0.0
 10
13.1905738806891
 20
19.86255176451112
 30
0.0
 10
12.89124865877629
 20
19.77940450456531
 30
0.0
 10
12.57930995349183
 20
19.71744608215997
 30
0.0
 10
12.25404773775031
 20
19.68224060251641
 30
0.0
 10
12.03283312811745
 20
19.67700845629948
 30
0.0
 10
11.92081330128205
 20
19.67435897435898
 30
0.0
  0
SPLINE
  5
A4
330
1F
100
AcDbEntity
  8
0
  6
Continuous
 62
     7
370
    25
100
AcDbSpline
210
0.0
220
0.0
230
1.0
 70
     8
 71
     3
 72
    15
 73
    11
 74
     0
 42
0.00000001
 43
0.00000001
 40
0.0
 40
0.0
 40
0.0
 40
0.0
 40
0.0698351039154363
 40
0.1556207549116644
 40
0.2578015566582749
 40
0.3738112340663704
 40
0.506402492674371
 40
0.6555644581431034
 40
0.8200792824038521
 40
1.0
 40
1.0
 40
1.0
 40
1.0
 10
14.59717548076923
 20
23.11903044871795
 30
0.0
 10
14.60806164969692
 20
23.16383813276161
 30
0.0
 10
14.63232042116913
 20
23.26368771020564
 30
0.0
 10
14.65498827011842
 20
23.43249353593215
 30
0.0
 10
14.67859766234125
 20
23.63166351375485
 30
0.0
 10
14.69497910205882
 20
23.86262866309556
 30
0.0
 10
14.71094924470522
 20
24.12461504940271
 30
0.0
 10
14.72050353742357
 20
24.418987469414
 30
0.0
 10
14.72491962831973
 20
24.74467701292867
 30
0.0
 10
14.7262356398917
 20
24.97196042851494
 30
0.0
 10
14.72692307692307
 20
25.09068509615385
 30
0.0
  0
SPLINE
  5
A5
330
1F
100
AcDbEntity
  8
0
  6
Continuous
 62
     7
370
    25
100
AcDbSpline
210
0.0
220
0.0
230
1.0
 70
     8
 71
     3
 72
    19
 73
    15
 74
     0
 42
0.00000001
 43
0.00000001
 40
0.0
 40
0.0
 40
0.0
 40
0.0
 40
0.0828906475568681
 40
0.1653025405594702
 40
0.2477618761145889
 40
0.3315277110598007
 40
0.4152798127751559
 40
0.4963662304840509
 40
0.577151348021147
 40
0.6577825401388814
 40
0.7393216419943465
 40
0.8237930816663163
 40
0.9094759533791139
 40
1.0
 40
1.0
 40
1.0
 40
1.0
 10
11.85721153846153
 20
20.97692307692308
 30
0.0
 10
11.96082082502906
 20
20.98081961937358
 30
0.0
 10
12.16744097820636
 20
20.98859019887139
 30
0.0
 10
12.47444145527727
 20
21.03671024860698
 30
0.0
 10
12.77343613523691
 20
21.12343515836257
 30
0.0
 10
13.06590145947205
 20
21.23533942462458
 30
0.0
 10
13.34004360293742
 20
21.38319496945559
 30
0.0
 10
13.59601552109334
 20
21.55399487268365
 30
0.0
 10
13.82448465386508
 20
21.75433147994818
 30
0.0
 10
14.0329751031416
 20
21.97603844438836
 30
0.0
 10
14.21453044180674
 20
22.22619143284087
 30
0.0
 10
14.37190572704733
 20
22.49934353376108
 30
0.0
 10
14.50081410033246
 20
22.79960544959221
 30
0.0
 10
14.56447203332136
 20
23.01062292461343
 30
0.0
 10
14.59717548076923
 20
23.11903044871795
 30
0.0
  0
SPLINE
  5
A6
330
1F
100
AcDbEntity
  8
0
  6
Continuous
 62
     7
370
    25
100
AcDbSpline
210
0.0
220
0.0
230
1.0
 70
     8
 71
     3
 72
    19
 73
    15
 74
     0
 42
0.00000001
 43
0.00000001
 40
0.0
 40
0.0
 40
0.0
 40
0.0
 40
0.0863150037405919
 40
0.1677664659179401
 40
0.2444326843848597
 40
0.3181346623514533
 40
0.3918841069799636
 40
0.4700680503917546
 40
0.5539041787139097
 40
0.6443394983098205
 40
0.7368746633345096
 40
0.8261683643076466
 40
0.9136785948895807
 40
1.0
 40
1.0
 40
1.0
 40
1.0
 10
8.91626602564102
 20
23.40142227564103
 30
0.0
 10
8.935052804734408
 20
23.28223544862273
 30
0.0
 10
8.971567795151959
 20
23.05057754575188
 30
0.0
 10
9.064627508797017
 20
22.72071035162809
 30
0.0
 10
9.194593869572625
 20
22.4234162030225
 30
0.0
 10
9.348601481750372
 20
22.14941808955914
 30
0.0
 10
9.551556957221786
 20
21.90634241168288
 30
0.0
 10
9.794684070940262
 20
21.68241727155227
 30
0.0
 10
10.08924340246713
 20
21.48657672327989
 30
0.0
 10
10.41676045733872
 20
21.30750377752931
 30
0.0
 10
10.76976689060724
 20
21.16357619294153
 30
0.0
 10
11.13048777136726
 20
21.05474312804926
 30
0.0
 10
11.49350086715879
 20
20.98841683458519
 30
0.0
 10
11.73652866616596
 20
20.98073682174164
 30
0.0
 10
11.85721153846153
 20
20.97692307692308
 30
0.0
  0
SPLINE
  5
A7
330
1F
100
AcDbEntity
  8
0
  6
Continuous
 62
     7
370
    25
100
AcDbSpline
210
0.0
220
0.0
230
1.0
 70
     8
 71
     3
 72
    15
 73
    11
 74
     0
 42
0.00000001
 43
0.00000001
 40
0.0
 40
0.0
 40
0.0
 40
0.0
 40
0.1910785917157196
 40
0.3626045563099713
 40
0.5160987502785594
 40
0.650038026039841
 40
0.765976720986791
 40
0.8623740257993887
 40
0.9408420582211746
 40
0.9999999999999999
 40
0.9999999999999999
 40
0.9999999999999999
 40
0.9999999999999999
 10
8.86538461538461
 20
25.09068509615385
 30
0.0
 10
8.865215001540664
 20
24.98298642645157
 30
0.0
 10
8.864893130042264
 20
24.77860964100471
 30
0.0
 10
8.867043108946993
 20
24.48771323622547
 30
0.0
 10
8.873064245760762
 20
24.22909602766634
 30
0.0
 10
8.876860310443679
 20
24.00176113791877
 30
0.0
 10
8.885305206414012
 20
23.80675173999673
 30
0.0
 10
8.892192405165353
 20
23.64301132694368
 30
0.0
 10
8.901048139508752
 20
23.51131522089457
 30
0.0
 10
8.91169116586486
 20
23.43445871779564
 30
0.0
 10
8.91626602564102
 20
23.40142227564103
 30
0.0
  0
LINE
  5
C2
330
1F
100
AcDbEntity
  8
0
  6
Continuous
 62
     7
370
    25
100
AcDbLine
 10
-60.41168402
 20
-6.2979756457
 30
0.0
 11
-54.4527020856
 21
-10.8704633048
 31
0.0
  0
LINE
  5
C3
330
1F
100
AcDbEntity
  8
0
  6
Continuous
 62
     7
370
    25
100
AcDbLine
 10
-54.4527020856
 20
60.8704633048
 30
0.0
 11
-60.41168402
 21
56.2979756457
 31
0.0
  0
LINE
  5
C4
330
1F
100
AcDbEntity
  8
0
  6
Continuous
 62
     7
370
    25
100
AcDbLine
 10
42.4870999284
 20
50.0
 30
0.0
 11
-42.4870999284
 21
50.0
 31
0.0
  0
LINE
  5
C5
330
1F
100
AcDbEntity
  8
0
  6
Continuous
 62
     7
370
    25
100
AcDbLine
 10
54.4527020856
 20
60.8704633048
 30
0.0
 11
60.41168402
 21
56.2979756457
 31
0.0
  0
LINE
  5
C6
330
1F
100
AcDbEntity
  8
0
  6
Continuous
 62
     7
370
    25
100
AcDbLine
 10
60.41168402
 20
-6.2979756457
 30
0.0
 11
54.4527020856
 21
-10.8704633048
 31
0.0
  0
LINE
  5
C7
330
1F
100
AcDbEntity
  8
0
  6
Continuous
 62
     7
370
    25
100
AcDbLine
 10
-42.4870999256
 20
0.0
 30
0.0
 11
42.4870999256
 21
0.0
 31
0.0
  0
LINE
  5
C8
330
1F
100
AcDbEntity
  8
0
  6
Continuous
 62
     7
370
    25
100
AcDbLine
 10
-3.0205128205
 20
32.7
 30
0.0
 11
-0.4789863782
 21
32.7
 31
0.0
  0
LINE
  5
C9
330
1F
100
AcDbEntity
  8
0
  6
Continuous
 62
     7
370
    25
100
AcDbLine
 10
-3.0205128205
 20
29.7974358974
 30
0.0
 11
-3.0205128205
 21
32.7
 31
0.0
  0
LINE
  5
CA
330
1F
100
AcDbEntity
  8
0
  6
Continuous
 62
     7
370
    25
100
AcDbLine
 10
-1.8807692308
 20
29.7974358974
 30
0.0
 11
-3.0205128205
 21
29.7974358974
 31
0.0
  0
LINE
  5
CB
330
1F
100
AcDbEntity
  8
0
  6
Continuous
 62
     7
370
    25
100
AcDbLine
 10
-1.8807692308
 20
31.3974358974
 30
0.0
 11
-1.8807692308
 21
29.7974358974
 31
0.0
  0
LINE
  5
CC
330
1F
100
AcDbEntity
  8
0
  6
Continuous
 62
     7
370
    25
100
AcDbLine
 10
-0.0807692308
 20
31.3974358974
 30
0.0
 11
-1.8807692308
 21
31.3974358974
 31
0.0
  0
LINE
  5
CD
330
1F
100
AcDbEntity
  8
0
  6
Continuous
 62
     7
370
    25
100
AcDbLine
 10
-0.0807692308
 20
32.6982667972
 30
0.0
 11
-0.0807692308
 21
31.3974358974
 31
0.0
  0
LINE
  5
CE
330
1F
100
AcDbEntity
  8
0
  6
Continuous
 62
     7
370
    25
100
AcDbLine
 10
4.9294596457
 20
29.7974358974
 30
0.0
 11
3.7577980324
 21
29.7974358878
 31
0.0
  0
LINE
  5
CF
330
1F
100
AcDbEntity
  8
0
  6
Continuous
 62
     7
370
    25
100
AcDbLine
 10
0.9192307692
 20
31.39298975
 30
0.0
 11
0.9192307716
 21
32.6746001117
 31
0.0
  0
LINE
  5
D0
330
1F
100
AcDbEntity
  8
0
  6
Continuous
 62
     7
370
    25
100
AcDbLine
 10
-1.8807692308
 20
27.1641025641
 30
0.0
 11
0.4445112179
 21
27.1462940705
 31
0.0
  0
LINE
  5
D1
330
1F
100
AcDbEntity
  8
0
  6
Continuous
 62
     7
370
    25
100
AcDbLine
 10
-1.8807692308
 20
28.7974358974
 30
0.0
 11
-1.8807692308
 21
27.1641025641
 31
0.0
  0
LINE
  5
D2
330
1F
100
AcDbEntity
  8
0
  6
Continuous
 62
     7
370
    25
100
AcDbLine
 10
-3.0205128205
 20
28.7974358974
 30
0.0
 11
-1.8807692308
 21
28.7974358974
 31
0.0
  0
LINE
  5
D3
330
1F
100
AcDbEntity
  8
0
  6
Continuous
 62
     7
370
    25
100
AcDbLine
 10
-3.0205128205
 20
20.0
 30
0.0
 11
-3.0205128205
 21
28.7974358974
 31
0.0
  0
LINE
  5
D4
330
1F
100
AcDbEntity
  8
0
  6
Continuous
 62
     7
370
    25
100
AcDbLine
 10
-1.8807692308
 20
20.0
 30
0.0
 11
-3.0205128205
 21
20.0
 31
0.0
  0
LINE
  5
D5
330
1F
100
AcDbEntity
  8
0
  6
Continuous
 62
     7
370
    25
100
AcDbLine
 10
-1.8807692308
 20
25.8615384615
 30
0.0
 11
-1.8807692308
 21
20.0
 31
0.0
  0
LINE
  5
D6
330
1F
100
AcDbEntity
  8
0
  6
Continuous
 62
     7
370
    25
100
AcDbLine
 10
-0.9547275641
 20
25.8615384615
 30
0.0
 11
-1.8807692308
 21
25.8615384615
 31
0.0
  0
LINE
  5
D7
330
1F
100
AcDbEntity
  8
0
  6
Continuous
 62
     7
370
    25
100
AcDbLine
 10
3.7110977564
 20
20.0
 30
0.0
 11
-0.9547275641
 21
25.8615384615
 31
0.0
  0
LINE
  5
D8
330
1F
100
AcDbEntity
  8
0
  6
Continuous
 62
     7
370
    25
100
AcDbLine
 10
5.1205128205
 20
20.0
 30
0.0
 11
3.7110977564
 21
20.0
 31
0.0
  0
LINE
  5
D9
330
1F
100
AcDbEntity
  8
0
  6
Continuous
 62
     7
370
    25
100
AcDbLine
 10
0.4546875
 20
25.8615384615
 30
0.0
 11
5.1205128205
 21
20.0
 31
0.0
  0
LINE
  5
DA
330
1F
100
AcDbEntity
  8
0
  6
Continuous
 62
     7
370
    25
100
AcDbLine
 10
3.7561137653
 20
28.7974358974
 30
0.0
 11
4.9271682041
 21
28.7974358974
 31
0.0
  0
LINE
  5
DB
330
1F
100
AcDbEntity
  8
0
  6
Continuous
 62
     7
370
    25
100
AcDbLine
 10
15.8666666667
 20
32.7
 30
0.0
 11
15.8666666667
 21
25.0296274038
 31
0.0
  0
LINE
  5
DC
330
1F
100
AcDbEntity
  8
0
  6
Continuous
 62
     7
370
    25
100
AcDbLine
 10
14.7269230769
 20
32.7
 30
0.0
 11
15.8666666667
 21
32.7
 31
0.0
  0
LINE
  5
DD
330
1F
100
AcDbEntity
  8
0
  6
Continuous
 62
     7
370
    25
100
AcDbLine
 10
14.7269230769
 20
25.0906850962
 30
0.0
 11
14.7269230769
 21
32.7
 31
0.0
  0
LINE
  5
DE
330
1F
100
AcDbEntity
  8
0
  6
Continuous
 62
     7
370
    25
100
AcDbLine
 10
8.8653846154
 20
32.7
 30
0.0
 11
8.8653846154
 21
25.0906850962
 31
0.0
  0
LINE
  5
DF
330
1F
100
AcDbEntity
  8
0
  6
Continuous
 62
     7
370
    25
100
AcDbLine
 10
7.7256410256
 20
32.7
 30
0.0
 11
8.8653846154
 21
32.7
 31
0.0
  0
LINE
  5
E0
330
1F
100
AcDbEntity
  8
0
  6
Continuous
 62
     7
370
    25
100
AcDbLine
 10
7.7256410256
 20
25.0296274038
 30
0.0
 11
7.7256410256
 21
32.7
 31
0.0
  0
LINE
  5
E1
330
1F
100
AcDbEntity
  8
0
  6
Continuous
 62
     7
370
    25
100
AcDbLine
 10
-16.1021233974
 20
20.0
 30
0.0
 11
-17.3487179487
 21
20.0
 31
0.0
  0
LINE
  5
E2
330
1F
100
AcDbEntity
  8
0
  6
Continuous
 62
     7
370
    25
100
AcDbLine
 10
-14.1737179487
 20
24.0705128205
 30
0.0
 11
-16.1021233974
 21
20.0
 31
0.0
  0
LINE
  5
E3
330
1F
100
AcDbEntity
  8
0
  6
Continuous
 62
     7
370
    25
100
AcDbLine
 10
-11.8029647436
 20
24.0705128205
 30
0.0
 11
-14.1737179487
 21
24.0705128205
 31
0.0
  0
LINE
  5
E4
330
1F
100
AcDbEntity
  8
0
  6
Continuous
 62
     7
370
    25
100
AcDbLine
 10
-11.8029647436
 20
25.3730769231
 30
0.0
 11
-11.8029647436
 21
24.0705128205
 31
0.0
  0
LINE
  5
E5
330
1F
100
AcDbEntity
  8
0
  6
Continuous
 62
     7
370
    25
100
AcDbLine
 10
-13.5529647436
 20
25.3730769231
 30
0.0
 11
-11.8029647436
 21
25.3730769231
 31
0.0
  0
LINE
  5
E6
330
1F
100
AcDbEntity
  8
0
  6
Continuous
 62
     7
370
    25
100
AcDbLine
 10
-12.8037066389
 20
26.9545674519
 30
0.0
 11
-13.5529647436
 21
25.3730769231
 31
0.0
  0
LINE
  5
E7
330
1F
100
AcDbEntity
  8
0
  6
Continuous
 62
     7
370
    25
100
AcDbLine
 10
-13.8211097198
 20
27.4365795096
 30
0.0
 11
-12.8037066389
 21
26.9545674519
 31
0.0
  0
LINE
  5
E8
330
1F
100
AcDbEntity
  8
0
  6
Continuous
 62
     7
370
    25
100
AcDbLine
 10
-17.3487179487
 20
20.0
 30
0.0
 11
-13.8211097198
 21
27.4365795096
 31
0.0
  0
LINE
  5
E9
330
1F
100
AcDbEntity
  8
0
  6
Continuous
 62
     7
370
    25
100
AcDbLine
 10
-9.0168870192
 20
25.3730769231
 30
0.0
 11
-9.7504502717
 21
26.9619082403
 31
0.0
  0
LINE
  5
EA
330
1F
100
AcDbEntity
  8
0
  6
Continuous
 62
     7
370
    25
100
AcDbLine
 10
-10.8029647436
 20
25.3730769231
 30
0.0
 11
-9.0168870192
 21
25.3730769231
 31
0.0
  0
LINE
  5
EB
330
1F
100
AcDbEntity
  8
0
  6
Continuous
 62
     7
370
    25
100
AcDbLine
 10
-10.8029647436
 20
24.0705128205
 30
0.0
 11
-10.8029647436
 21
25.3730769231
 31
0.0
  0
LINE
  5
EC
330
1F
100
AcDbEntity
  8
0
  6
Continuous
 62
     7
370
    25
100
AcDbLine
 10
-8.4164863782
 20
24.0705128205
 30
0.0
 11
-10.8029647436
 21
24.0705128205
 31
0.0
  0
LINE
  5
ED
330
1F
100
AcDbEntity
  8
0
  6
Continuous
 62
     7
370
    25
100
AcDbLine
 10
-6.5389623397
 20
20.0
 30
0.0
 11
-8.4164863782
 21
24.0705128205
 31
0.0
  0
LINE
  5
EE
330
1F
100
AcDbEntity
  8
0
  6
Continuous
 62
     7
370
    25
100
AcDbLine
 10
-5.3
 20
20.0
 30
0.0
 11
-6.5389623397
 21
20.0
 31
0.0
  0
LINE
  5
EF
330
1F
100
AcDbEntity
  8
0
  6
Continuous
 62
     7
370
    25
100
AcDbLine
 10
-8.7305263181
 20
27.4328070226
 30
0.0
 11
-5.3
 21
20.0
 31
0.0
  0
LINE
  5
F0
330
1F
100
AcDbEntity
  8
0
  6
Continuous
 62
     7
370
    25
100
AcDbLine
 10
-9.7504502717
 20
26.9619082403
 30
0.0
 11
-8.7305263181
 21
27.4328070226
 31
0.0
  0
LINE
  5
F1
330
1F
100
AcDbEntity
  8
0
  6
Continuous
 62
     7
370
    25
100
AcDbLine
 10
-11.2556690705
 20
30.2220753205
 30
0.0
 11
-12.3755591506
 21
27.8582763254
 31
0.0
  0
LINE
  5
F2
330
1F
100
AcDbEntity
  8
0
  6
Continuous
 62
     7
370
    25
100
AcDbLine
 10
-10.1696292731
 20
27.8698118502
 30
0.0
 11
-11.2556690705
 21
30.2220753205
 31
0.0
  0
LINE
  5
F3
330
1F
100
AcDbEntity
  8
0
  6
Continuous
 62
     7
370
    25
100
AcDbLine
 10
-9.1495844993
 20
28.3407664152
 30
0.0
 11
-10.1696292731
 21
27.8698118502
 31
0.0
  0
LINE
  5
F4
330
1F
100
AcDbEntity
  8
0
  6
Continuous
 62
     7
370
    25
100
AcDbLine
 10
-11.1615384615
 20
32.7
 30
0.0
 11
-9.1495844993
 21
28.3407664152
 31
0.0
  0
LINE
  5
F5
330
1F
100
AcDbEntity
  8
0
  6
Continuous
 62
     7
370
    25
100
AcDbLine
 10
-11.3243589744
 20
32.7
 30
0.0
 11
-11.1615384615
 21
32.7
 31
0.0
  0
LINE
  5
F6
330
1F
100
AcDbEntity
  8
0
  6
Continuous
 62
     7
370
    25
100
AcDbLine
 10
-13.3925254629
 20
28.3400814566
 30
0.0
 11
-11.3243589744
 21
32.7
 31
0.0
  0
LINE
  5
F7
330
1F
100
AcDbEntity
  8
0
  6
Continuous
 62
     7
370
    25
100
AcDbLine
 10
-12.3755591506
 20
27.8582763254
 30
0.0
 11
-13.3925254629
 21
28.3400814566
 31
0.0
  0
ARC
  5
F8
330
1F
100
AcDbEntity
  8
0
  6
Continuous
 62
     7
370
    25
100
AcDbCircle
 10
-42.5399624958
 20
-3.0
 30
0.0
 40
2.999999999999845
100
AcDbArc
 50
123.5968554052
 51
154.4836126338
  0
ARC
  5
F9
330
1F
100
AcDbEntity
  8
0
  6
Continuous
 62
     7
370
    25
100
AcDbCircle
 10
-101.2
 20
25.0
 30
0.0
 40
61.99999999999461
100
AcDbArc
 50
325.4146015751
 51
334.4836126338
  0
ARC
  5
FA
330
1F
100
AcDbEntity
  8
0
  6
Continuous
 62
     7
370
    25
100
AcDbCircle
 10
-52.6264177986
 20
-8.4904032839
 30
0.0
 40
3.000000000000021
100
AcDbArc
 50
232.5
 51
325.4146015751
  0
ARC
  5
FB
330
1F
100
AcDbEntity
  8
0
  6
Continuous
 62
     7
370
    25
100
AcDbCircle
 10
-58.585399733
 20
-3.9179156248
 30
0.0
 40
3.000000000000002
100
AcDbArc
 50
145.8395087275
 51
232.5
  0
ARC
  5
FC
330
1F
100
AcDbEntity
  8
0
  6
Continuous
 62
     7
370
    25
100
AcDbCircle
 10
-101.2
 20
25.0
 30
0.0
 40
48.49999999999989
100
AcDbArc
 50
325.8395087275
 51
34.1604912725
  0
ARC
  5
FD
330
1F
100
AcDbEntity
  8
0
  6
Continuous
 62
     7
370
    25
100
AcDbCircle
 10
-58.585399733
 20
53.9179156248
 30
0.0
 40
3.000000000000005
100
AcDbArc
 50
127.5
 51
214.1604912725
  0
ARC
  5
FE
330
1F
100
AcDbEntity
  8
0
  6
Continuous
 62
     7
370
    25
100
AcDbCircle
 10
-52.6264177986
 20
58.4904032839
 30
0.0
 40
3.000000000000005
100
AcDbArc
 50
34.5853984249
 51
127.5
  0
ARC
  5
FF
330
1F
100
AcDbEntity
  8
0
  6
Continuous
 62
     7
370
    25
100
AcDbCircle
 10
-101.2
 20
25.0
 30
0.0
 40
61.99999999999727
100
AcDbArc
 50
25.5163873662
 51
34.5853984249
  0
ARC
  5
100
330
1F
100
AcDbEntity
  8
0
  6
Continuous
 62
     7
370
    25
100
AcDbCircle
 10
-42.5399624958
 20
53.0
 30
0.0
 40
3.000000000000179
100
AcDbArc
 50
205.5163873662
 51
236.4031445948
  0
ARC
  5
101
330
1F
100
AcDbEntity
  8
0
  6
Continuous
 62
     7
370
    25
100
AcDbCircle
 10
42.5399624958
 20
53.0
 30
0.0
 40
2.999999999999817
100
AcDbArc
 50
303.5968554052
 51
334.4836126338
  0
ARC
  5
102
330
1F
100
AcDbEntity
  8
0
  6
Continuous
 62
     7
370
    25
100
AcDbCircle
 10
101.2
 20
25.0
 30
0.0
 40
61.99999999999613
100
AcDbArc
 50
145.4146015751
 51
154.4836126338
  0
ARC
  5
103
330
1F
100
AcDbEntity
  8
0
  6
Continuous
 62
     7
370
    25
100
AcDbCircle
 10
52.6264177986
 20
58.4904032839
 30
0.0
 40
3.000000000000011
100
AcDbArc
 50
52.5
 51
145.4146015751
  0
ARC
  5
104
330
1F
100
AcDbEntity
  8
0
  6
Continuous
 62
     7
370
    25
100
AcDbCircle
 10
58.585399733
 20
53.9179156248
 30
0.0
 40
2.999999999999995
100
AcDbArc
 50
325.8395087275
 51
52.5
  0
ARC
  5
105
330
1F
100
AcDbEntity
  8
0
  6
Continuous
 62
     7
370
    25
100
AcDbCircle
 10
101.2
 20
25.0
 30
0.0
 40
48.49999999999989
100
AcDbArc
 50
145.8395087275
 51
214.1604912725
  0
ARC
  5
106
330
1F
100
AcDbEntity
  8
0
  6
Continuous
 62
     7
370
    25
100
AcDbCircle
 10
58.585399733
 20
-3.9179156248
 30
0.0
 40
3.000000000000007
100
AcDbArc
 50
307.5
 51
34.1604912725
  0
ARC
  5
107
330
1F
100
AcDbEntity
  8
0
  6
Continuous
 62
     7
370
    25
100
AcDbCircle
 10
52.6264177986
 20
-8.4904032839
 30
0.0
 40
2.999999999999986
100
AcDbArc
 50
214.5853984249
 51
307.5
  0
ARC
  5
108
330
1F
100
AcDbEntity
  8
0
  6
Continuous
 62
     7
370
    25
100
AcDbCircle
 10
101.2
 20
25.0
 30
0.0
 40
61.99999999999418
100
AcDbArc
 50
205.5163873662
 51
214.5853984249
  0
ARC
  5
109
330
1F
100
AcDbEntity
  8
0
  6
Continuous
 62
     7
370
    25
100
AcDbCircle
 10
42.5399624958
 20
-3.0
 30
0.0
 40
2.999999999999942
100
AcDbArc
 50
25.5163873662
 51
56.4031445948
  0
MTEXT
  5
10B
330
1F
100
AcDbEntity
  8
0
  6
Continuous
 62
     7
100
AcDbMText
 10
-61.585399733
 20
-12.5099696756
 30
0.0
 40
4.83362
 41
0.0
 71
     1
 72
     1
  1
SOLIDWORKS Educational Product.
  7
SLDTEXTSTYLE0
 73
     1
 44
1.0
  0
MTEXT
  5
10C
330
1F
100
AcDbEntity
  8
0
  6
Continuous
 62
     7
100
AcDbMText
 10
-61.585399733
 20
-19.7603996756
 30
0.0
 40
4.83362
 41
0.0
 71
     1
 72
     1
  1
For Instructional Use Only.
  7
SLDTEXTSTYLE0
 73
     1
 44
1.0
  0
ENDSEC
  0
SECTION
  2
OBJECTS
  0
DICTIONARY
  5
C
330
0
100
AcDbDictionary
281
     1
  3
ACAD_GROUP
350
D
  3
ACAD_LAYOUT
350
1A
  3
ACAD_MLINESTYLE
350
17
  3
ACAD_PLOTSETTINGS
350
19
  3
ACAD_PLOTSTYLENAME
350
E
  3
ACAD_SCALELIST
350
47
  3
DWGPROPS
350
10D
  0
DICTIONARY
  5
D
102
{ACAD_REACTORS
330
C
102
}
330
C
100
AcDbDictionary
281
     1
  0
DICTIONARY
  5
1A
102
{ACAD_REACTORS
330
C
102
}
330
C
100
AcDbDictionary
281
     1
  3
Layout1
350
1E
  3
Layout2
350
26
  3
Model
350
22
  0
DICTIONARY
  5
17
102
{ACAD_REACTORS
330
C
102
}
330
C
100
AcDbDictionary
281
     1
  3
Standard
350
18
  0
DICTIONARY
  5
19
102
{ACAD_REACTORS
330
C
102
}
330
C
100
AcDbDictionary
281
     1
  0
ACDBDICTIONARYWDFLT
  5
E
102
{ACAD_REACTORS
330
C
102
}
330
C
100
AcDbDictionary
281
     1
  3
Normal
350
F
100
AcDbDictionaryWithDefault
340
F
  0
DICTIONARY
  5
47
102
{ACAD_REACTORS
330
C
102
}
330
C
100
AcDbDictionary
281
     1
  3
A0
350
48
  3
A1
350
49
  3
A2
350
4A
  3
A3
350
4B
  3
A4
350
4C
  3
A5
350
4D
  3
A6
350
4E
  3
A7
350
4F
  3
A8
350
50
  3
A9
350
51
  3
B0
350
52
  3
B1
350
53
  3
B2
350
54
  3
B3
350
55
  3
B4
350
56
  3
B5
350
57
  3
B6
350
58
  0
XRECORD
  5
10D
102
{ACAD_REACTORS
330
C
102
}
330
C
100
AcDbXrecord
280
     1
  1
DWGPROPS COOKIE
  2

  3

  4

  6

  7

  8
claro
  9

300
=
301
=
302
=
303
=
304
=
305
=
306
=
307
=
308
=
309
=
 40
0.0
 41
2460844.394366517
 42
2460844.394398438
  1

 90
        0
  0
LAYOUT
  5
1E
102
{ACAD_REACTORS
330
1A
102
}
330
1A
100
AcDbPlotSettings
  1

  2
none_device
  4

  6

 40
0.0
 41
0.0
 42
0.0
 43
0.0
 44
0.0
 45
0.0
 46
0.0
 47
0.0
 48
0.0
 49
0.0
140
0.0
141
0.0
142
1.0
143
1.0
 70
   688
 72
     1
 73
     0
 74
     5
  7

 75
    16
147
1.0
148
0.0
149
0.0
100
AcDbLayout
  1
Layout1
 70
     1
 71
     1
 10
0.0
 20
0.0
 11
420.0
 21
297.0
 12
0.0
 22
0.0
 32
0.0
 14
1.0000000000E+20
 24
1.0000000000E+20
 34
1.0000000000E+20
 15
-1.0000000000E+20
 25
-1.0000000000E+20
 35
-1.0000000000E+20
146
0.0
 13
0.0
 23
0.0
 33
0.0
 16
1.0
 26
0.0
 36
0.0
 17
0.0
 27
1.0
 37
0.0
 76
     0
330
1B
  0
LAYOUT
  5
26
102
{ACAD_REACTORS
330
1A
102
}
330
1A
100
AcDbPlotSettings
  1

  2
none_device
  4

  6

 40
0.0
 41
0.0
 42
0.0
 43
0.0
 44
0.0
 45
0.0
 46
0.0
 47
0.0
 48
0.0
 49
0.0
140
0.0
141
0.0
142
1.0
143
1.0
 70
   688
 72
     1
 73
     0
 74
     5
  7

 75
    16
147
1.0
148
0.0
149
0.0
100
AcDbLayout
  1
Layout2
 70
     1
 71
     2
 10
0.0
 20
0.0
 11
0.0
 21
0.0
 12
0.0
 22
0.0
 32
0.0
 14
0.0
 24
0.0
 34
0.0
 15
0.0
 25
0.0
 35
0.0
146
0.0
 13
0.0
 23
0.0
 33
0.0
 16
1.0
 26
0.0
 36
0.0
 17
0.0
 27
1.0
 37
0.0
 76
     0
330
23
  0
LAYOUT
  5
22
102
{ACAD_REACTORS
330
1A
102
}
330
1A
100
AcDbPlotSettings
  1

  2
none_device
  4
ANSI_A_(11.00_x_8.50_Inches)
  6

 40
6.35
 41
19.05
 42
6.35000508
 43
19.05000254
 44
279.4
 45
215.9
 46
133.34999746
 47
32.757227635
 48
0.0
 49
0.0
140
0.0
141
0.0
142
0.0884138127
143
1.0
 70
  1696
 72
     0
 73
     0
 74
     0
  7

 75
     0
147
0.0179189148
148
-1300.4909072572
149
0.0
100
AcDbLayout
  1
Model
 70
     1
 71
     0
 10
0.0
 20
0.0
 11
420.0
 21
297.0
 12
0.0
 22
0.0
 32
0.0
 14
-61.585399733
 24
-11.4904032839
 34
0.0
 15
61.585399733
 25
61.4904032839
 35
0.0
146
0.0
 13
0.0
 23
0.0
 33
0.0
 16
1.0
 26
0.0
 36
0.0
 17
0.0
 27
1.0
 37
0.0
 76
     0
330
1F
331
29
  0
MLINESTYLE
  5
18
102
{ACAD_REACTORS
330
17
102
}
330
17
100
AcDbMlineStyle
  2
Standard
 70
     0
  3

 62
   256
 51
90.0
 52
90.0
 71
     2
 49
0.5
 62
   256
  6
BYLAYER
 49
-0.5
 62
   256
  6
BYLAYER
  0
ACDBPLACEHOLDER
  5
F
102
{ACAD_REACTORS
330
E
102
}
330
E
  0
SCALE
  5
48
102
{ACAD_REACTORS
330
47
102
}
330
47
100
AcDbScale
 70
     0
300
1:1
140
1.0
141
1.0
290
     1
  0
SCALE
  5
49
102
{ACAD_REACTORS
330
47
102
}
330
47
100
AcDbScale
 70
     0
300
1:2
140
1.0
141
2.0
290
     0
  0
SCALE
  5
4A
102
{ACAD_REACTORS
330
47
102
}
330
47
100
AcDbScale
 70
     0
300
1:4
140
1.0
141
4.0
290
     0
  0
SCALE
  5
4B
102
{ACAD_REACTORS
330
47
102
}
330
47
100
AcDbScale
 70
     0
300
1:5
140
1.0
141
5.0
290
     0
  0
SCALE
  5
4C
102
{ACAD_REACTORS
330
47
102
}
330
47
100
AcDbScale
 70
     0
300
1:8
140
1.0
141
8.0
290
     0
  0
SCALE
  5
4D
102
{ACAD_REACTORS
330
47
102
}
330
47
100
AcDbScale
 70
     0
300
1:10
140
1.0
141
10.0
290
     0
  0
SCALE
  5
4E
102
{ACAD_REACTORS
330
47
102
}
330
47
100
AcDbScale
 70
     0
300
1:16
140
1.0
141
16.0
290
     0
  0
SCALE
  5
4F
102
{ACAD_REACTORS
330
47
102
}
330
47
100
AcDbScale
 70
     0
300
1:20
140
1.0
141
20.0
290
     0
  0
SCALE
  5
50
102
{ACAD_REACTORS
330
47
102
}
330
47
100
AcDbScale
 70
     0
300
1:30
140
1.0
141
30.0
290
     0
  0
SCALE
  5
51
102
{ACAD_REACTORS
330
47
102
}
330
47
100
AcDbScale
 70
     0
300
1:40
140
1.0
141
40.0
290
     0
  0
SCALE
  5
52
102
{ACAD_REACTORS
330
47
102
}
330
47
100
AcDbScale
 70
     0
300
1:50
140
1.0
141
50.0
290
     0
  0
SCALE
  5
53
102
{ACAD_REACTORS
330
47
102
}
330
47
100
AcDbScale
 70
     0
300
1:100
140
1.0
141
100.0
290
     0
  0
SCALE
  5
54
102
{ACAD_REACTORS
330
47
102
}
330
47
100
AcDbScale
 70
     0
300
2:1
140
2.0
141
1.0
290
     0
  0
SCALE
  5
55
102
{ACAD_REACTORS
330
47
102
}
330
47
100
AcDbScale
 70
     0
300
4:1
140
4.0
141
1.0
290
     0
  0
SCALE
  5
56
102
{ACAD_REACTORS
330
47
102
}
330
47
100
AcDbScale
 70
     0
300
8:1
140
8.0
141
1.0
290
     0
  0
SCALE
  5
57
102
{ACAD_REACTORS
330
47
102
}
330
47
100
AcDbScale
 70
     0
300
10:1
140
10.0
141
1.0
290
     0
  0
SCALE
  5
58
102
{ACAD_REACTORS
330
47
102
}
330
47
100
AcDbScale
 70
     0
300
100:1
140
100.0
141
1.0
290
     0
  0
ENDSEC
  0
EOF
